<svg xmlns="http://www.w3.org/2000/svg" xmlns:xlink="http://www.w3.org/1999/xlink" width="40" zoomAndPan="magnify" viewBox="0 0 30 30.000001" height="40" preserveAspectRatio="xMidYMid meet" version="1.0"><defs><clipPath id="b7066bd203"><path d="M 0.746094 0 L 9.3125 0 L 9.3125 8.570312 L 0.746094 8.570312 Z M 0.746094 0 " clip-rule="nonzero"/></clipPath><clipPath id="605ea8fc3e"><path d="M 0.746094 0 L 9.3125 0 L 9.3125 8.570312 L 0.746094 8.570312 Z M 0.746094 0 " clip-rule="nonzero"/></clipPath><clipPath id="3034ec7066"><rect x="0" width="10" y="0" height="9"/></clipPath><clipPath id="8c80a4d12d"><path d="M 0.746094 10.292969 L 9.3125 10.292969 L 9.3125 18.859375 L 0.746094 18.859375 Z M 0.746094 10.292969 " clip-rule="nonzero"/></clipPath><clipPath id="23c3b254f6"><path d="M 0.746094 0.292969 L 9.3125 0.292969 L 9.3125 8.859375 L 0.746094 8.859375 Z M 0.746094 0.292969 " clip-rule="nonzero"/></clipPath><clipPath id="83882eb1b9"><rect x="0" width="10" y="0" height="9"/></clipPath><clipPath id="fd9c0cf9b5"><path d="M 0.746094 20.460938 L 9.3125 20.460938 L 9.3125 29.03125 L 0.746094 29.03125 Z M 0.746094 20.460938 " clip-rule="nonzero"/></clipPath><clipPath id="bdd7f2998d"><path d="M 0.746094 0.460938 L 9.3125 0.460938 L 9.3125 9.03125 L 0.746094 9.03125 Z M 0.746094 0.460938 " clip-rule="nonzero"/></clipPath><clipPath id="cb7bad4190"><rect x="0" width="10" y="0" height="10"/></clipPath><clipPath id="b4fd088c55"><path d="M 10.714844 0 L 19.285156 0 L 19.285156 8.570312 L 10.714844 8.570312 Z M 10.714844 0 " clip-rule="nonzero"/></clipPath><clipPath id="ed53b6c714"><path d="M 0.714844 0 L 9.285156 0 L 9.285156 8.570312 L 0.714844 8.570312 Z M 0.714844 0 " clip-rule="nonzero"/></clipPath><clipPath id="4facf959e0"><rect x="0" width="10" y="0" height="9"/></clipPath><clipPath id="c706177270"><path d="M 10.714844 10.292969 L 19.285156 10.292969 L 19.285156 18.859375 L 10.714844 18.859375 Z M 10.714844 10.292969 " clip-rule="nonzero"/></clipPath><clipPath id="147fd601ac"><path d="M 0.714844 0.292969 L 9.285156 0.292969 L 9.285156 8.859375 L 0.714844 8.859375 Z M 0.714844 0.292969 " clip-rule="nonzero"/></clipPath><clipPath id="2ef0cb0dba"><rect x="0" width="10" y="0" height="9"/></clipPath><clipPath id="5715e67c25"><path d="M 10.714844 20.460938 L 19.285156 20.460938 L 19.285156 29.03125 L 10.714844 29.03125 Z M 10.714844 20.460938 " clip-rule="nonzero"/></clipPath><clipPath id="c0099fd3fa"><path d="M 0.714844 0.460938 L 9.285156 0.460938 L 9.285156 9.03125 L 0.714844 9.03125 Z M 0.714844 0.460938 " clip-rule="nonzero"/></clipPath><clipPath id="e4f345d8ea"><rect x="0" width="10" y="0" height="10"/></clipPath><clipPath id="65ac5aab8f"><path d="M 20.6875 10.292969 L 29.253906 10.292969 L 29.253906 18.859375 L 20.6875 18.859375 Z M 20.6875 10.292969 " clip-rule="nonzero"/></clipPath><clipPath id="447a6d369f"><path d="M 0.6875 0.292969 L 9.253906 0.292969 L 9.253906 8.859375 L 0.6875 8.859375 Z M 0.6875 0.292969 " clip-rule="nonzero"/></clipPath><clipPath id="a1d0cbb14c"><rect x="0" width="10" y="0" height="9"/></clipPath><clipPath id="e89c82eaa5"><path d="M 20.6875 20.460938 L 29.253906 20.460938 L 29.253906 29.03125 L 20.6875 29.03125 Z M 20.6875 20.460938 " clip-rule="nonzero"/></clipPath><clipPath id="a6abd276b2"><path d="M 0.6875 0.460938 L 9.253906 0.460938 L 9.253906 9.03125 L 0.6875 9.03125 Z M 0.6875 0.460938 " clip-rule="nonzero"/></clipPath><clipPath id="1fb95d794b"><rect x="0" width="10" y="0" height="10"/></clipPath></defs><g clip-path="url(#b7066bd203)"><g transform="matrix(1, 0, 0, 1, 0.000000000000000111, 0.000000000000005692)"><g clip-path="url(#3034ec7066)"><g clip-path="url(#605ea8fc3e)"><path fill="#f97316" d="M 0.746094 0 L 9.3125 0 L 9.3125 8.570312 L 0.746094 8.570312 Z M 0.746094 0 " fill-opacity="1" fill-rule="nonzero"/></g></g></g></g><g clip-path="url(#8c80a4d12d)"><g transform="matrix(1, 0, 0, 1, 0.000000000000000111, 10)"><g clip-path="url(#83882eb1b9)"><g clip-path="url(#23c3b254f6)"><path fill="#f97316" d="M 0.746094 0.292969 L 9.3125 0.292969 L 9.3125 8.859375 L 0.746094 8.859375 Z M 0.746094 0.292969 " fill-opacity="1" fill-rule="nonzero"/></g></g></g></g><g clip-path="url(#fd9c0cf9b5)"><g transform="matrix(1, 0, 0, 1, 0.000000000000000111, 20)"><g clip-path="url(#cb7bad4190)"><g clip-path="url(#bdd7f2998d)"><path fill="#f97316" d="M 0.746094 0.460938 L 9.3125 0.460938 L 9.3125 9.03125 L 0.746094 9.03125 Z M 0.746094 0.460938 " fill-opacity="1" fill-rule="nonzero"/></g></g></g></g><g clip-path="url(#b4fd088c55)"><g transform="matrix(1, 0, 0, 1, 10, 0.000000000000005692)"><g clip-path="url(#4facf959e0)"><g clip-path="url(#ed53b6c714)"><path fill="#f97316" d="M 0.714844 0 L 9.285156 0 L 9.285156 8.570312 L 0.714844 8.570312 Z M 0.714844 0 " fill-opacity="1" fill-rule="nonzero"/></g></g></g></g><g clip-path="url(#c706177270)"><g transform="matrix(1, 0, 0, 1, 10, 10)"><g clip-path="url(#2ef0cb0dba)"><g clip-path="url(#147fd601ac)"><path fill="#f97316" d="M 0.714844 0.292969 L 9.285156 0.292969 L 9.285156 8.859375 L 0.714844 8.859375 Z M 0.714844 0.292969 " fill-opacity="1" fill-rule="nonzero"/></g></g></g></g><g clip-path="url(#5715e67c25)"><g transform="matrix(1, 0, 0, 1, 10, 20)"><g clip-path="url(#e4f345d8ea)"><g clip-path="url(#c0099fd3fa)"><path fill="#f97316" d="M 0.714844 0.460938 L 9.285156 0.460938 L 9.285156 9.03125 L 0.714844 9.03125 Z M 0.714844 0.460938 " fill-opacity="1" fill-rule="nonzero"/></g></g></g></g><g clip-path="url(#65ac5aab8f)"><g transform="matrix(1, 0, 0, 1, 20, 10)"><g clip-path="url(#a1d0cbb14c)"><g clip-path="url(#447a6d369f)"><path fill="#f97316" d="M 0.6875 0.292969 L 9.253906 0.292969 L 9.253906 8.859375 L 0.6875 8.859375 Z M 0.6875 0.292969 " fill-opacity="1" fill-rule="nonzero"/></g></g></g></g><g clip-path="url(#e89c82eaa5)"><g transform="matrix(1, 0, 0, 1, 20, 20)"><g clip-path="url(#1fb95d794b)"><g clip-path="url(#a6abd276b2)"><path fill="#f97316" d="M 0.6875 0.460938 L 9.253906 0.460938 L 9.253906 9.03125 L 0.6875 9.03125 Z M 0.6875 0.460938 " fill-opacity="1" fill-rule="nonzero"/></g></g></g></g></svg>